<mxfile host="app.diagrams.net" modified="2023-07-09T18:33:12.187Z" agent="Mozilla/5.0 (Windows NT 10.0; Win64; x64; rv:109.0) Gecko/20100101 Firefox/115.0" etag="dN1VYpquzJq9E-uM23hw" version="21.6.1" type="github">
  <diagram name="Page-1" id="K0beEtVPf47ITyZFxGnr">
    <mxGraphModel dx="792" dy="2233" grid="1" gridSize="10" guides="1" tooltips="1" connect="1" arrows="1" fold="1" page="1" pageScale="1" pageWidth="850" pageHeight="1100" math="0" shadow="0">
      <root>
        <mxCell id="0" />
        <mxCell id="1" parent="0" />
        <mxCell id="z8xS_-f5tbxmREKYc3Xp-3" style="edgeStyle=orthogonalEdgeStyle;rounded=0;orthogonalLoop=1;jettySize=auto;html=1;" edge="1" parent="1" source="z8xS_-f5tbxmREKYc3Xp-1" target="z8xS_-f5tbxmREKYc3Xp-2">
          <mxGeometry relative="1" as="geometry" />
        </mxCell>
        <mxCell id="z8xS_-f5tbxmREKYc3Xp-1" value="PC Select" style="shape=trapezoid;perimeter=trapezoidPerimeter;whiteSpace=wrap;html=1;fixedSize=1;rotation=90;" vertex="1" parent="1">
          <mxGeometry x="140" y="330" width="120" height="60" as="geometry" />
        </mxCell>
        <mxCell id="z8xS_-f5tbxmREKYc3Xp-5" style="edgeStyle=orthogonalEdgeStyle;rounded=0;orthogonalLoop=1;jettySize=auto;html=1;entryX=0.5;entryY=1;entryDx=0;entryDy=0;" edge="1" parent="1" source="z8xS_-f5tbxmREKYc3Xp-2" target="z8xS_-f5tbxmREKYc3Xp-4">
          <mxGeometry relative="1" as="geometry" />
        </mxCell>
        <mxCell id="z8xS_-f5tbxmREKYc3Xp-10" style="edgeStyle=orthogonalEdgeStyle;rounded=0;orthogonalLoop=1;jettySize=auto;html=1;entryX=0;entryY=0.5;entryDx=0;entryDy=0;" edge="1" parent="1" source="z8xS_-f5tbxmREKYc3Xp-2" target="z8xS_-f5tbxmREKYc3Xp-9">
          <mxGeometry relative="1" as="geometry">
            <Array as="points">
              <mxPoint x="400" y="360" />
              <mxPoint x="400" y="445" />
            </Array>
          </mxGeometry>
        </mxCell>
        <mxCell id="z8xS_-f5tbxmREKYc3Xp-2" value="PC" style="whiteSpace=wrap;html=1;aspect=fixed;" vertex="1" parent="1">
          <mxGeometry x="290" y="320" width="80" height="80" as="geometry" />
        </mxCell>
        <mxCell id="z8xS_-f5tbxmREKYc3Xp-6" style="edgeStyle=orthogonalEdgeStyle;rounded=0;orthogonalLoop=1;jettySize=auto;html=1;" edge="1" parent="1" source="z8xS_-f5tbxmREKYc3Xp-4">
          <mxGeometry relative="1" as="geometry">
            <mxPoint x="170" y="390" as="targetPoint" />
            <Array as="points">
              <mxPoint x="511" y="250" />
              <mxPoint x="511" y="170" />
              <mxPoint x="80" y="170" />
              <mxPoint x="80" y="390" />
              <mxPoint x="170" y="390" />
            </Array>
          </mxGeometry>
        </mxCell>
        <mxCell id="z8xS_-f5tbxmREKYc3Xp-8" value="PC+4" style="edgeLabel;html=1;align=center;verticalAlign=middle;resizable=0;points=[];" vertex="1" connectable="0" parent="z8xS_-f5tbxmREKYc3Xp-6">
          <mxGeometry x="0.7558" y="2" relative="1" as="geometry">
            <mxPoint x="38" y="15" as="offset" />
          </mxGeometry>
        </mxCell>
        <mxCell id="z8xS_-f5tbxmREKYc3Xp-4" value="+4" style="shape=trapezoid;perimeter=trapezoidPerimeter;whiteSpace=wrap;html=1;fixedSize=1;rotation=90;" vertex="1" parent="1">
          <mxGeometry x="400" y="230" width="100" height="40" as="geometry" />
        </mxCell>
        <mxCell id="z8xS_-f5tbxmREKYc3Xp-12" style="edgeStyle=orthogonalEdgeStyle;rounded=0;orthogonalLoop=1;jettySize=auto;html=1;entryX=-0.008;entryY=0.412;entryDx=0;entryDy=0;entryPerimeter=0;" edge="1" parent="1" source="z8xS_-f5tbxmREKYc3Xp-9" target="z8xS_-f5tbxmREKYc3Xp-11">
          <mxGeometry relative="1" as="geometry">
            <Array as="points">
              <mxPoint x="520" y="445" />
              <mxPoint x="520" y="320" />
            </Array>
          </mxGeometry>
        </mxCell>
        <mxCell id="z8xS_-f5tbxmREKYc3Xp-17" value="inst[11:7]" style="edgeLabel;html=1;align=center;verticalAlign=middle;resizable=0;points=[];" vertex="1" connectable="0" parent="z8xS_-f5tbxmREKYc3Xp-12">
          <mxGeometry x="0.5822" y="3" relative="1" as="geometry">
            <mxPoint as="offset" />
          </mxGeometry>
        </mxCell>
        <mxCell id="z8xS_-f5tbxmREKYc3Xp-15" style="edgeStyle=orthogonalEdgeStyle;rounded=0;orthogonalLoop=1;jettySize=auto;html=1;entryX=0;entryY=0.876;entryDx=0;entryDy=0;entryPerimeter=0;" edge="1" parent="1" source="z8xS_-f5tbxmREKYc3Xp-9" target="z8xS_-f5tbxmREKYc3Xp-11">
          <mxGeometry relative="1" as="geometry">
            <Array as="points">
              <mxPoint x="520" y="445" />
              <mxPoint x="520" y="399" />
            </Array>
          </mxGeometry>
        </mxCell>
        <mxCell id="z8xS_-f5tbxmREKYc3Xp-19" value="inst[24:20]" style="edgeLabel;html=1;align=center;verticalAlign=middle;resizable=0;points=[];" vertex="1" connectable="0" parent="z8xS_-f5tbxmREKYc3Xp-15">
          <mxGeometry x="0.2775" relative="1" as="geometry">
            <mxPoint x="10" y="1" as="offset" />
          </mxGeometry>
        </mxCell>
        <mxCell id="z8xS_-f5tbxmREKYc3Xp-16" style="edgeStyle=orthogonalEdgeStyle;rounded=0;orthogonalLoop=1;jettySize=auto;html=1;entryX=-0.008;entryY=0.647;entryDx=0;entryDy=0;entryPerimeter=0;" edge="1" parent="1" source="z8xS_-f5tbxmREKYc3Xp-9" target="z8xS_-f5tbxmREKYc3Xp-11">
          <mxGeometry relative="1" as="geometry">
            <Array as="points">
              <mxPoint x="520" y="445" />
              <mxPoint x="520" y="360" />
            </Array>
          </mxGeometry>
        </mxCell>
        <mxCell id="z8xS_-f5tbxmREKYc3Xp-18" value="inst[19:15]" style="edgeLabel;html=1;align=center;verticalAlign=middle;resizable=0;points=[];" vertex="1" connectable="0" parent="z8xS_-f5tbxmREKYc3Xp-16">
          <mxGeometry x="0.5591" relative="1" as="geometry">
            <mxPoint as="offset" />
          </mxGeometry>
        </mxCell>
        <mxCell id="z8xS_-f5tbxmREKYc3Xp-25" style="edgeStyle=orthogonalEdgeStyle;rounded=0;orthogonalLoop=1;jettySize=auto;html=1;entryX=0.33;entryY=-0.033;entryDx=0;entryDy=0;entryPerimeter=0;exitX=1;exitY=0.5;exitDx=0;exitDy=0;" edge="1" parent="1">
          <mxGeometry relative="1" as="geometry">
            <mxPoint x="480" y="446.98" as="sourcePoint" />
            <mxPoint x="523.5999999999999" y="590" as="targetPoint" />
            <Array as="points">
              <mxPoint x="480" y="448" />
              <mxPoint x="520" y="448" />
              <mxPoint x="520" y="590" />
            </Array>
          </mxGeometry>
        </mxCell>
        <mxCell id="z8xS_-f5tbxmREKYc3Xp-26" value="inst[31:0]" style="edgeLabel;html=1;align=center;verticalAlign=middle;resizable=0;points=[];" vertex="1" connectable="0" parent="z8xS_-f5tbxmREKYc3Xp-25">
          <mxGeometry x="0.4534" y="-1" relative="1" as="geometry">
            <mxPoint as="offset" />
          </mxGeometry>
        </mxCell>
        <mxCell id="z8xS_-f5tbxmREKYc3Xp-9" value="IMEM" style="rounded=0;whiteSpace=wrap;html=1;rotation=0;" vertex="1" parent="1">
          <mxGeometry x="430" y="390" width="50" height="110" as="geometry" />
        </mxCell>
        <mxCell id="z8xS_-f5tbxmREKYc3Xp-21" style="edgeStyle=orthogonalEdgeStyle;rounded=0;orthogonalLoop=1;jettySize=auto;html=1;entryX=0.5;entryY=1;entryDx=0;entryDy=0;" edge="1" parent="1" target="z8xS_-f5tbxmREKYc3Xp-20">
          <mxGeometry relative="1" as="geometry">
            <mxPoint x="732" y="392" as="sourcePoint" />
          </mxGeometry>
        </mxCell>
        <mxCell id="z8xS_-f5tbxmREKYc3Xp-11" value="Reg[]" style="rounded=0;whiteSpace=wrap;html=1;rotation=0;" vertex="1" parent="1">
          <mxGeometry x="600" y="250" width="130" height="170" as="geometry" />
        </mxCell>
        <mxCell id="z8xS_-f5tbxmREKYc3Xp-20" value="Branch Compare" style="shape=trapezoid;perimeter=trapezoidPerimeter;whiteSpace=wrap;html=1;fixedSize=1;rotation=90;" vertex="1" parent="1">
          <mxGeometry x="780" y="400" width="120" height="60" as="geometry" />
        </mxCell>
        <mxCell id="z8xS_-f5tbxmREKYc3Xp-23" style="edgeStyle=orthogonalEdgeStyle;rounded=0;orthogonalLoop=1;jettySize=auto;html=1;entryX=1;entryY=0.5;entryDx=0;entryDy=0;" edge="1" parent="1" source="z8xS_-f5tbxmREKYc3Xp-22" target="z8xS_-f5tbxmREKYc3Xp-1">
          <mxGeometry relative="1" as="geometry">
            <Array as="points">
              <mxPoint x="200" y="550" />
              <mxPoint x="200" y="550" />
            </Array>
          </mxGeometry>
        </mxCell>
        <mxCell id="z8xS_-f5tbxmREKYc3Xp-24" value="PCSel" style="edgeLabel;html=1;align=center;verticalAlign=middle;resizable=0;points=[];" vertex="1" connectable="0" parent="z8xS_-f5tbxmREKYc3Xp-23">
          <mxGeometry x="-0.1667" relative="1" as="geometry">
            <mxPoint as="offset" />
          </mxGeometry>
        </mxCell>
        <mxCell id="z8xS_-f5tbxmREKYc3Xp-27" style="edgeStyle=orthogonalEdgeStyle;rounded=0;orthogonalLoop=1;jettySize=auto;html=1;entryX=1;entryY=0.75;entryDx=0;entryDy=0;" edge="1" parent="1" source="z8xS_-f5tbxmREKYc3Xp-22" target="z8xS_-f5tbxmREKYc3Xp-20">
          <mxGeometry relative="1" as="geometry">
            <Array as="points">
              <mxPoint x="826" y="570" />
              <mxPoint x="826" y="570" />
            </Array>
          </mxGeometry>
        </mxCell>
        <mxCell id="z8xS_-f5tbxmREKYc3Xp-22" value="CONTROL LOGIC" style="rounded=0;whiteSpace=wrap;html=1;" vertex="1" parent="1">
          <mxGeometry x="50" y="590" width="1420" height="60" as="geometry" />
        </mxCell>
        <mxCell id="z8xS_-f5tbxmREKYc3Xp-28" value="" style="endArrow=none;dashed=1;html=1;dashPattern=1 3;strokeWidth=2;rounded=0;" edge="1" parent="1">
          <mxGeometry width="50" height="50" relative="1" as="geometry">
            <mxPoint x="490" y="920" as="sourcePoint" />
            <mxPoint x="490" as="targetPoint" />
          </mxGeometry>
        </mxCell>
        <mxCell id="z8xS_-f5tbxmREKYc3Xp-29" value="FETCH" style="text;html=1;align=center;verticalAlign=middle;resizable=0;points=[];autosize=1;strokeColor=none;fillColor=none;" vertex="1" parent="1">
          <mxGeometry x="180" y="58" width="60" height="30" as="geometry" />
        </mxCell>
      </root>
    </mxGraphModel>
  </diagram>
</mxfile>
